<svg xmlns="http://www.w3.org/2000/svg" viewBox="0 0 90 90">
  <defs>
  </defs>
  <title>Ресурс 2</title>
  <g id="Слой_2" data-name="Слой 2">
    <g id="Layer_5_copy" data-name="Layer 5 copy">
      <path class="cls-1" d="M45,0A45,45,0,1,0,90,45,45,45,0,0,0,45,0ZM75.28,75.28A42.82,42.82,0,1,1,14.72,14.72l.58-.56a5.07,5.07,0,0,1-.59,1.32c-.63.95-1.69,1.33-2.36,2.22A8.94,8.94,0,0,0,11,20.65c-.25,1-.1,2.19-.45,3.17-.44,1.25-1.24,2-1.09,3.44,1.74.51,1-2.58,2.45-2.74.47,1.16.16,3.3,0,4.56-.18,1.73-.52,2.16.51,3.65.82,1.17,1.09,2,2.68,2.15s2.05.82,2.66,2.22c1.11.24,1.79.43,1.94,1.67A14.06,14.06,0,0,0,21.67,40c.74.2,2-.86,2.68,0,1.17,1.36-1.48,4.91-2,6.14-.7,1.79-.8,4.43.9,5.72.87.66,1.8,1,2.09,2.18s.06,2,.55,3.09c.77,1.64,2.52,2.18,3.77,3.43,1.65,1.64,1.53,3.78,1.53,6.1s.93,4.29,1.25,6.52,1,4.43,1.49,6.66c.37,1.67,1.81,4.2,3.9,3.86.14-.79-.68-1.42-.78-2.2s.11-1.45,0-2.22a3.93,3.93,0,0,1,.74-3.71c.35-.46.84-.85,1.21-1.31.7-.91.16-.64.13-1.63,0-1.23.34-.63,1.08-1a5.56,5.56,0,0,0,1.11-1.11,16.54,16.54,0,0,0,2.15-2.28c.57-.91.5-2.16,1.08-3.09s1.6-1.07,2.53-1.77c1.2-.9.71-1.85.93-3.09a14,14,0,0,1,2.6-6c1.64-2.08,2.35-3.84.35-5.83-1-1-1.5-.72-2.81-1.07-1-.26-1.9-1-2.91-1.11-.61-.08-1,.14-1.53,0s-.45-.46-1-.45c-.81,0-1.95,1.71-2.64.62-.38-.6.78-2.27.73-3.08-.07-1-.44-2.62-1.41-3.17-.37-.2-1.19-.23-1.64-.41A8.69,8.69,0,0,1,36.23,39c-.62-.4-1.82-1.1-2.1-1.81-.76,0-1.28-.45-2.05-.44a12.9,12.9,0,0,1-1.92.25c-.65-.08-1.36-.6-2.08-.5a6.6,6.6,0,0,0-1.58.91,11.19,11.19,0,0,1-3.44,1.28c-1.85.35-2.19-.36-2.08-2.08L20.7,36c.69-1.92-.55-2.06-1.92-2.52-.19-1.37,1.49-2.34.79-3.84-1.42-.07-3,3.93-4.17,2.2-.79-1.15.41-4.34,1.11-5.31A10,10,0,0,1,21,23.67a1.94,1.94,0,0,1,2.12,1.11c.39.9-.12,1.74,0,2.76,1.19-.28.88-1.8.83-2.62-.09-1.36.63-1.26,1.33-2.24s.73-1.92,1.52-2.79c.61-.67,1.34-1.38,2-2s1.64-.64,2.43-1.16c1.2-.8-.39-2.28,1.39-2.16.63,0,.31.43,1.15.24a13.8,13.8,0,0,0,1.38-.56c1.69-.69.49-.87-.29-1.76-1-1.14.41-.94,1.43-1.11.75-.13.59-.37,1.24.07s.24.9,1.08.87c1.6-.05.5-1.66.14-2.19-.61-.91-.77-1.55-2.06-1.58a2,2,0,0,0,0-1.35c-1.08.15-1.27-.64-2.09-1-1.39-.53-1.16.6-1.73,1.38s-1.7.66-2.12,1.63,0,1.78-1.65,1.51a5.36,5.36,0,0,0,.1-2A7.48,7.48,0,0,1,27.8,8.4c0-1.63,1.8-1.77,3-1.92s1.82-1.57,3-1.8,2,1.63,3.37.55c.8-.61.43-1,.14-1.56-.08-.15-.48-.51-.59-.66s0,0,0,0c1.09-.22,2.2-.38,3.31-.51A10.77,10.77,0,0,0,41,4.23c.18.31.53.51.67.85s-.22.87.26,1.13c.76.4,3-2.22,3.48-2.64s1.08-.84.93-1.36A42.61,42.61,0,0,1,56.61,3.77c.27.33.54.67.81,1.05.58.81.95,1.54,2,1.9.6.21,2.55.17,1.74,1.57s-1.57-.4-2-.81c-.52-.56-2.07-1.18-2,.11.08,1.91,4.39,1.6,3.46,3.71.52.3,1.54.81,1.37,1.56-.2.93-1.42.34-1.39,1.53a2.75,2.75,0,0,0,3.58,2.46c1.82-.65.45-3.17,2.53-3.43a2.45,2.45,0,0,1,2,.72c.6.47,1,1.55,1.82,1.47.08-.51-.3-.88-.37-1.35a5.32,5.32,0,0,1,2.29,1.51c.56.85.5,2.06,1.86,1-.21-.16-.31-.54-.42-.67a3.8,3.8,0,0,1,3.7,2.23c1.66,3.37-2.43.69-2.63,2.45-1-.32-1.46-1.13-2.33-1.62-.42-.23-1.18-.1-1.5-.34s-.33-.9-.72-1.22c-1.51-1.24-5,.77-6.35,1.57-.38.21-.78.24-1,.64-.44.7.18.88,0,1.54-.19.93-1.41,1.36-1.78,2.1-.88,1.8.91,4.36.67,6.36-.13,1.1-1.32,2.3-.87,3.22.2.4.89.74,1.15,1.21A12.09,12.09,0,0,0,63,35.64,55.51,55.51,0,0,0,66.65,40a2.61,2.61,0,0,0,2.62.77,14.78,14.78,0,0,0,2.92-.84c1-.5,1.18-1.21,2.28-.73.88.38,1.65,1.5,2.67.57.84.83-.09,2.26-.28,3.18a4,4,0,0,0,1,3.2c.86,1.2,1.07,1.41.89,3-.14,1.25-.46,2.39-.72,3.63s-1,2.08-1,3.33.53,2.09.38,3.33a25.2,25.2,0,0,1-.49,3.47c-.29,1.1-1.06,2.07-1.39,3.19A3.72,3.72,0,0,0,76,69.44c.77.91,1.55.39,2.46-.3,1.8-1.37,2.62-3.69,3.81-5.53a36,36,0,0,0,3.26-5.54,11.63,11.63,0,0,1,.6-1.23A42.58,42.58,0,0,1,75.28,75.28Z"/>
    </g>
  </g>
</svg>
